<?xml version="1.0" encoding="ISO-8859-1" standalone="no"?>
<!DOCTYPE svg PUBLIC "-//W3C//DTD SVG 1.1//EN" "http://www.w3.org/Graphics/SVG/1.1/DTD/svg11.dtd">
<svg version="1.1" baseProfile="full" id="body" width="8in" height="8in" viewBox="0 0 1 1" preserveAspectRatio="none" xmlns="http://www.w3.org/2000/svg" xmlns:xlink="http://www.w3.org/1999/xlink" xmlns:ev="http://www.w3.org/2001/xml-events">
<title>SVG drawing</title>
<desc>This was produced by version 4.4 of GNU libplot, a free library for exporting 2-D vector graphics.</desc>
<rect id="background" x="0" y="0" width="1" height="1" stroke="none" fill="white"/>
<g id="content" transform="translate(-0.03125,1.1875) scale(1,-1) scale(0.0017361) " xml:space="preserve" stroke="black" stroke-linecap="butt" stroke-linejoin="miter" stroke-miterlimit="10.433" stroke-dasharray="none" stroke-dashoffset="0" stroke-opacity="1" fill="none" fill-rule="evenodd" fill-opacity="1" font-style="normal" font-variant="normal" font-weight="normal" font-stretch="normal" font-size-adjust="none" letter-spacing="normal" word-spacing="normal" text-anchor="start">
<path d="M0,29.73 L0.12815,29.682 L0.26421,29.632 L0.40802,29.581 L0.55944,29.529 L0.71832,29.476 L0.88451,29.423 L1.0579,29.369 L1.2382,29.316 L1.4254,29.262 L1.6194,29.208 L1.8199,29.155 L2.0268,29.103 L2.2399,29.051 L2.4592,29 L2.6845,28.95 L2.9155,28.902 L3.1523,28.855 L3.3945,28.81 L3.6421,28.766 L3.8949,28.725 L4.4156,28.649 L4.9554,28.584 L5.513,28.531 L6.0873,28.491 L6.6772,28.466 L7.2812,28.457 C12.988,28.457,17.062,31.359,17.062,36.199 C17.062,39.254,15.434,40.73,12.172,42.82 L9.0664,44.805 C7.2305,45.977,6.1094,46.738,6.1094,48.164 C6.1094,49.746,7.1797,50.715,9.7266,50.715 C12.019,50.715,13.699,50.152,15.277,49.543 L15.637,54.43 C15.023,54.637,12.426,55.5,9.0664,55.5 C3.5156,55.5,0,51.68,0,48.062 C0,43.938,2.9023,42.258,5.5508,40.68 L8.1484,39.152 C10.441,37.828,10.949,36.859,10.949,35.84 C10.949,33.805,9.168,33.242,6.875,33.242 C3.9219,33.242,1.3242,34.566,0.30469,34.977 Z " stroke-width="0" fill="black" fill-rule="nonzero" />
<path d="M45.348,44.066 L45.352,44.391 L45.364,44.715 L45.385,45.038 L45.413,45.36 L45.451,45.679 L45.497,45.995 L45.551,46.308 L45.615,46.617 L45.687,46.92 L45.768,47.218 L45.859,47.51 L45.958,47.795 L46.067,48.072 L46.186,48.341 L46.313,48.602 L46.451,48.853 L46.598,49.093 L46.755,49.323 L46.921,49.542 L47.098,49.748 L47.285,49.942 L47.482,50.122 L47.689,50.288 L47.907,50.44 L48.135,50.576 L48.374,50.696 L48.624,50.799 L48.884,50.885 L49.155,50.953 L49.437,51.003 L49.731,51.033 L50.035,51.043 C52.887,51.043,54.414,48.699,54.414,44.066 Z " stroke-width="0" fill="black" fill-rule="nonzero" />
<path d="M58.898,34.949 L58.671,34.783 L58.425,34.613 L58.295,34.526 L58.161,34.439 L58.02,34.352 L57.874,34.265 L57.722,34.178 L57.564,34.092 L57.4,34.007 L57.229,33.923 L57.051,33.84 L56.866,33.76 L56.673,33.681 L56.473,33.604 L56.265,33.531 L56.049,33.459 L55.824,33.391 L55.591,33.327 L55.349,33.266 L55.097,33.208 L54.836,33.155 L54.566,33.107 L54.286,33.063 L53.995,33.024 L53.694,32.99 L53.382,32.962 L53.06,32.94 L52.726,32.924 L52.38,32.914 L52.023,32.91 C47.133,32.91,45.348,35.609,45.348,40.094 H60.527 V41.316 C60.527,52.012,55.688,55.32,50.035,55.32 C43.363,55.32,39.238,49.262,39.238,41.418 C39.238,34.336,42.906,28.277,51.359,28.277 C55.129,28.277,57.879,29.398,59.203,29.957 Z " stroke-width="0" fill="black" fill-rule="nonzero" />
<path d="M101.73,40.09 L101.72,39.656 L101.71,39.233 L101.69,38.822 L101.66,38.422 L101.62,38.034 L101.57,37.658 L101.52,37.294 L101.45,36.942 L101.38,36.603 L101.29,36.276 L101.2,35.962 L101.09,35.661 L100.98,35.372 L100.85,35.097 L100.71,34.836 L100.57,34.588 L100.41,34.354 L100.24,34.133 L100.06,33.927 L99.865,33.735 L99.66,33.557 L99.444,33.394 L99.216,33.246 L98.975,33.112 L98.721,32.994 L98.455,32.891 L98.176,32.803 L97.884,32.731 L97.579,32.675 L97.26,32.634 L96.928,32.61 L96.582,32.602 C94.137,32.602,92.559,34.23,92.559,36.629 C92.559,40.445,95.766,41.566,101.16,41.566 H101.73 Z " stroke-width="0" fill="black" fill-rule="nonzero" />
<path d="M89.656,48.34 L89.775,48.437 L89.904,48.536 L90.041,48.638 L90.186,48.742 L90.34,48.847 L90.502,48.953 L90.672,49.06 L90.85,49.168 L91.035,49.275 L91.227,49.382 L91.426,49.489 L91.632,49.594 L91.845,49.697 L92.064,49.799 L92.289,49.899 L92.52,49.996 L92.756,50.09 L92.998,50.18 L93.246,50.267 L93.498,50.35 L93.755,50.428 L94.017,50.501 L94.283,50.57 L94.553,50.632 L94.827,50.689 L95.105,50.739 L95.386,50.783 L95.67,50.819 L95.958,50.848 L96.248,50.869 L96.541,50.882 L96.836,50.887 C100.45,50.887,101.73,48.492,101.73,45.895 V44.93 H100.45 C92.453,44.93,86.648,43.145,86.648,36.016 C86.648,31.125,90.418,28.324,94.492,28.324 C98.262,28.324,100.25,30.156,101.82,32.297 H101.93 C101.93,31.023,101.98,29.75,102.29,28.73 H107.99 C107.84,29.75,107.63,31.484,107.63,33.367 V44.824 C107.63,51.395,105.75,55.367,97.598,55.367 C93.574,55.367,91.078,54.246,89.297,53.434 Z " stroke-width="0" fill="black" fill-rule="nonzero" />
<polygon points="134.84,28.324 141.15,28.324 141.15,66.523 134.84,66.523 " stroke-width="0" fill="black" fill-rule="nonzero" />
<polygon points="160.4,28.324 153.44,39.965 146.57,28.324 " stroke-width="0" fill="black" fill-rule="nonzero" />
<polygon points="124.89,28.324 117.93,39.965 111.06,28.324 " stroke-width="0" fill="black" fill-rule="nonzero" />
<polygon points="76.031,28.324 69.07,39.965 62.199,28.324 " stroke-width="0" fill="black" fill-rule="nonzero" />
<path d="M47.535,0 L34.145,22.383 C27.348,22.383,20,22.383,13.215,22.383 L0,0 Z " stroke-width="0" fill="black" fill-rule="nonzero" />
<path d="M23.609,39.996 L16.719,28.324 C21.344,28.324,25.969,28.324,30.59,28.324 Z " stroke-width="0" fill="black" fill-rule="nonzero" />
<polygon points="33.723,21.355 160.77,21.355 160.77,22.383 33.723,22.383 " stroke-width="0" fill="black" fill-rule="nonzero" />
<path d="M47.41,17.719 L47.394,17.723 L47.376,17.728 L47.358,17.733 L47.338,17.738 L47.318,17.743 L47.297,17.748 L47.275,17.753 L47.253,17.758 L47.23,17.763 L47.206,17.769 L47.157,17.779 L47.106,17.789 L47.053,17.799 L46.999,17.808 L46.944,17.817 L46.888,17.824 L46.832,17.831 L46.777,17.836 L46.721,17.84 L46.667,17.843 L46.613,17.844 C46.035,17.844,45.348,17.469,45.348,16.656 C45.348,16.062,45.629,15.828,46.363,15.469 C46.863,15.219,47.129,15.047,47.129,14.641 C47.129,14.25,46.801,13.891,46.332,13.891 C45.941,13.891,45.504,14.094,45.363,14.188 L45.285,13.641 C45.551,13.547,45.848,13.438,46.379,13.438 C47.098,13.438,47.645,13.906,47.645,14.688 C47.645,15.375,47.191,15.594,46.598,15.906 C46.02,16.234,45.879,16.312,45.879,16.703 C45.879,17.016,46.098,17.391,46.598,17.391 C46.879,17.391,47.098,17.312,47.332,17.219 L47.41,17.719 Z " stroke-width="0" fill="black" />
<path d="M49.973,13.891 L49.922,13.892 L49.873,13.895 L49.826,13.9 L49.78,13.906 L49.736,13.915 L49.693,13.926 L49.652,13.938 L49.612,13.952 L49.573,13.967 L49.536,13.984 L49.5,14.003 L49.466,14.023 L49.432,14.044 L49.4,14.067 L49.37,14.091 L49.34,14.116 L49.312,14.142 L49.285,14.169 L49.259,14.198 L49.234,14.227 L49.188,14.289 L49.146,14.354 L49.108,14.421 L49.074,14.491 L49.043,14.563 L49.016,14.637 L48.992,14.711 L48.97,14.786 L48.952,14.861 L48.937,14.936 L48.923,15.01 L48.912,15.082 L48.903,15.153 L48.896,15.222 L48.89,15.288 L48.886,15.351 L48.883,15.411 L48.881,15.467 L48.88,15.518 L48.879,15.564 L48.879,15.605 L48.879,15.624 L48.879,15.641 C48.879,15.984,48.879,17.391,49.973,17.391 C51.066,17.391,51.066,15.984,51.066,15.641 C51.066,15.297,51.066,13.891,49.973,13.891 Z " stroke-width="0" fill="black" />
<path d="M49.973,13.438 L50.031,13.438 L50.087,13.441 L50.197,13.45 L50.301,13.466 L50.401,13.488 L50.495,13.515 L50.585,13.548 L50.671,13.587 L50.751,13.63 L50.828,13.678 L50.9,13.731 L50.968,13.789 L51.031,13.85 L51.091,13.916 L51.146,13.985 L51.198,14.058 L51.246,14.135 L51.29,14.214 L51.331,14.297 L51.368,14.382 L51.402,14.47 L51.433,14.56 L51.461,14.652 L51.485,14.746 L51.506,14.842 L51.525,14.939 L51.541,15.037 L51.554,15.136 L51.564,15.236 L51.572,15.337 L51.578,15.438 L51.581,15.539 L51.582,15.641 C51.582,16.719,51.223,17.844,49.973,17.844 C48.723,17.844,48.363,16.719,48.363,15.641 C48.363,14.562,48.723,13.438,49.973,13.438 Z " stroke-width="0" fill="black" />
<path d="M52.797,13.5 H53.281 V17.328 H54.031 V17.781 H53.281 V18.797 C53.281,19.141,53.391,19.453,53.828,19.453 C54,19.453,54.125,19.406,54.219,19.375 V19.859 C54.125,19.875,54.016,19.906,53.844,19.906 C52.969,19.906,52.797,19.344,52.797,18.703 V17.781 H52.125 V17.328 H52.797 Z " stroke-width="0" fill="black" />
<path d="M55.039,18.641 V17.781 H54.398 V17.328 H55.039 V14.406 C55.039,13.922,55.195,13.438,55.836,13.438 C56.055,13.438,56.273,13.453,56.398,13.5 V13.984 C56.305,13.953,56.227,13.891,55.992,13.891 C55.586,13.891,55.523,14.203,55.523,14.547 V17.328 H56.398 V17.781 H55.523 V18.797 L55.039,18.641 Z " stroke-width="0" fill="black" />
<polygon points="57.895,13.5 58.457,13.5 59.332,17.234 59.348,17.234 60.285,13.5 60.879,13.5 62.004,17.781 61.52,17.781 60.629,14.016 60.598,14.016 59.66,17.781 59.051,17.781 58.176,14.016 58.145,14.016 57.254,17.781 56.723,17.781 57.895,13.5 " stroke-width="0" fill="black" />
<path d="M65.223,16.422 L65.223,16.453 L65.222,16.489 L65.222,16.529 L65.22,16.573 L65.218,16.619 L65.214,16.669 L65.209,16.721 L65.202,16.776 L65.193,16.832 L65.182,16.89 L65.169,16.949 L65.153,17.009 L65.134,17.07 L65.111,17.13 L65.086,17.19 L65.057,17.25 L65.024,17.309 L64.986,17.366 L64.945,17.422 L64.898,17.476 L64.847,17.528 L64.82,17.553 L64.791,17.577 L64.761,17.6 L64.73,17.623 L64.697,17.645 L64.662,17.666 L64.627,17.686 L64.589,17.704 L64.551,17.722 L64.51,17.739 L64.468,17.755 L64.425,17.77 L64.38,17.783 L64.333,17.796 L64.284,17.806 L64.234,17.816 L64.182,17.824 L64.128,17.831 L64.073,17.837 L64.015,17.841 L63.956,17.843 L63.895,17.844 C63.426,17.844,63.129,17.688,62.707,17.469 L62.785,16.953 C62.848,16.984,63.301,17.391,63.863,17.391 C64.77,17.391,64.77,16.625,64.77,16.078 H64.457 C63.832,16.078,62.379,16.062,62.379,14.688 C62.379,13.984,62.91,13.438,63.582,13.438 C64.129,13.438,64.488,13.641,64.785,14.109 H64.801 L64.832,13.5 H65.27 C65.238,13.812,65.223,14.141,65.223,14.453 Z " stroke-width="0" fill="black" />
<path d="M64.77,15.156 L64.769,15.102 L64.767,15.05 L64.764,14.999 L64.76,14.949 L64.755,14.901 L64.748,14.854 L64.741,14.809 L64.733,14.765 L64.723,14.723 L64.713,14.682 L64.702,14.643 L64.69,14.604 L64.677,14.567 L64.664,14.532 L64.649,14.497 L64.634,14.464 L64.618,14.432 L64.602,14.401 L64.584,14.372 L64.567,14.343 L64.548,14.316 L64.529,14.29 L64.49,14.241 L64.449,14.196 L64.407,14.155 L64.363,14.118 L64.318,14.084 L64.273,14.054 L64.227,14.027 L64.181,14.003 L64.136,13.982 L64.09,13.964 L64.045,13.948 L64.001,13.935 L63.959,13.924 L63.917,13.914 L63.878,13.907 L63.84,13.901 L63.805,13.897 L63.772,13.894 L63.742,13.892 L63.715,13.891 L63.691,13.891 C63.176,13.891,62.895,14.328,62.895,14.688 C62.895,15.656,63.754,15.656,64.77,15.656 Z " stroke-width="0" fill="black" />
<path d="M66.426,13.5 H66.91 V16.203 C66.91,16.984,67.27,17.328,68.035,17.328 V17.844 C67.566,17.844,67.207,17.719,66.895,17.109 H66.863 C66.863,17.281,66.848,17.531,66.848,17.781 H66.379 C66.395,17.344,66.426,16.906,66.426,16.453 Z " stroke-width="0" fill="black" />
<path d="M71.484,15.484 L71.483,15.683 L71.477,15.886 L71.465,16.091 L71.456,16.193 L71.446,16.295 L71.433,16.396 L71.418,16.496 L71.4,16.594 L71.38,16.691 L71.357,16.786 L71.33,16.879 L71.301,16.969 L71.268,17.057 L71.231,17.141 L71.191,17.222 L71.146,17.3 L71.098,17.373 L71.045,17.443 L70.987,17.507 L70.925,17.567 L70.858,17.622 L70.786,17.672 L70.709,17.716 L70.668,17.735 L70.626,17.754 L70.583,17.77 L70.538,17.785 L70.492,17.799 L70.444,17.81 L70.394,17.821 L70.344,17.829 L70.291,17.835 L70.238,17.84 L70.182,17.843 L70.125,17.844 C69.391,17.844,68.594,17.25,68.594,15.641 C68.594,15.219,68.594,13.438,70.281,13.438 C70.797,13.438,71.078,13.578,71.281,13.688 L71.25,14.25 C71.016,14.031,70.609,13.891,70.328,13.891 C70.141,13.891,69.109,13.891,69.109,15.484 H71.484 Z " stroke-width="0" fill="black" />
<path d="M69.109,15.938 L69.11,15.991 L69.113,16.047 L69.118,16.103 L69.124,16.161 L69.132,16.221 L69.143,16.28 L69.155,16.341 L69.169,16.402 L69.185,16.463 L69.202,16.524 L69.222,16.584 L69.244,16.644 L69.267,16.704 L69.293,16.762 L69.32,16.819 L69.35,16.875 L69.381,16.929 L69.414,16.981 L69.45,17.031 L69.487,17.079 L69.526,17.124 L69.568,17.167 L69.611,17.206 L69.657,17.243 L69.704,17.276 L69.753,17.305 L69.805,17.33 L69.859,17.351 L69.914,17.368 L69.972,17.38 L70.002,17.385 L70.032,17.388 L70.063,17.39 L70.094,17.391 C70.484,17.391,70.969,17.078,70.969,15.938 H69.109 Z " stroke-width="0" fill="black" />
<path d="M77.223,15.484 L77.221,15.683 L77.215,15.886 L77.203,16.091 L77.194,16.193 L77.184,16.295 L77.171,16.396 L77.156,16.496 L77.138,16.594 L77.118,16.691 L77.095,16.786 L77.068,16.879 L77.039,16.969 L77.006,17.057 L76.969,17.141 L76.929,17.222 L76.884,17.3 L76.836,17.373 L76.783,17.443 L76.726,17.507 L76.663,17.567 L76.596,17.622 L76.524,17.672 L76.447,17.716 L76.406,17.735 L76.364,17.754 L76.321,17.77 L76.276,17.785 L76.23,17.799 L76.182,17.81 L76.133,17.821 L76.082,17.829 L76.03,17.835 L75.976,17.84 L75.92,17.843 L75.863,17.844 C75.129,17.844,74.332,17.25,74.332,15.641 C74.332,15.219,74.332,13.438,76.02,13.438 C76.535,13.438,76.816,13.578,77.02,13.688 L76.988,14.25 C76.754,14.031,76.348,13.891,76.066,13.891 C75.879,13.891,74.848,13.891,74.848,15.484 H77.223 Z " stroke-width="0" fill="black" />
<path d="M74.848,15.938 L74.849,15.991 L74.851,16.047 L74.856,16.103 L74.862,16.161 L74.871,16.221 L74.881,16.28 L74.893,16.341 L74.907,16.402 L74.923,16.463 L74.941,16.524 L74.96,16.584 L74.982,16.644 L75.006,16.704 L75.031,16.762 L75.059,16.819 L75.088,16.875 L75.119,16.929 L75.153,16.981 L75.188,17.031 L75.225,17.079 L75.265,17.124 L75.306,17.167 L75.349,17.206 L75.395,17.243 L75.442,17.276 L75.492,17.305 L75.543,17.33 L75.597,17.351 L75.652,17.368 L75.71,17.38 L75.74,17.385 L75.77,17.388 L75.801,17.39 L75.832,17.391 C76.223,17.391,76.707,17.078,76.707,15.938 H74.848 Z " stroke-width="0" fill="black" />
<polygon points="78.988,13.5 79.566,13.5 80.832,17.781 80.348,17.781 79.301,14.062 79.27,14.062 78.254,17.781 77.723,17.781 78.988,13.5 " stroke-width="0" fill="black" />
<path d="M82.953,13.891 L82.903,13.892 L82.854,13.895 L82.806,13.9 L82.761,13.906 L82.716,13.915 L82.673,13.926 L82.632,13.938 L82.592,13.952 L82.554,13.967 L82.516,13.984 L82.481,14.003 L82.446,14.023 L82.413,14.044 L82.381,14.067 L82.35,14.091 L82.321,14.116 L82.293,14.142 L82.265,14.169 L82.24,14.198 L82.215,14.227 L82.169,14.289 L82.126,14.354 L82.088,14.421 L82.054,14.491 L82.023,14.563 L81.996,14.637 L81.972,14.711 L81.951,14.786 L81.933,14.861 L81.917,14.936 L81.904,15.01 L81.893,15.082 L81.884,15.153 L81.876,15.222 L81.871,15.288 L81.867,15.351 L81.864,15.411 L81.862,15.467 L81.86,15.518 L81.86,15.564 L81.859,15.605 L81.859,15.624 L81.859,15.641 C81.859,15.984,81.859,17.391,82.953,17.391 C84.047,17.391,84.047,15.984,84.047,15.641 C84.047,15.297,84.047,13.891,82.953,13.891 Z " stroke-width="0" fill="black" />
<path d="M82.953,13.438 L83.011,13.438 L83.068,13.441 L83.177,13.45 L83.282,13.466 L83.381,13.488 L83.476,13.515 L83.566,13.548 L83.651,13.587 L83.732,13.63 L83.808,13.678 L83.88,13.731 L83.948,13.789 L84.012,13.85 L84.071,13.916 L84.127,13.985 L84.179,14.058 L84.227,14.135 L84.271,14.214 L84.312,14.297 L84.349,14.382 L84.383,14.47 L84.414,14.56 L84.441,14.652 L84.465,14.746 L84.487,14.842 L84.505,14.939 L84.521,15.037 L84.534,15.136 L84.545,15.236 L84.553,15.337 L84.558,15.438 L84.561,15.539 L84.562,15.641 C84.562,16.719,84.203,17.844,82.953,17.844 C81.703,17.844,81.344,16.719,81.344,15.641 C81.344,14.562,81.703,13.438,82.953,13.438 Z " stroke-width="0" fill="black" />
<polygon points="85.59,13.5 86.09,13.5 86.09,19.797 85.59,19.797 " stroke-width="0" fill="black" />
<path d="M90.082,17.781 H89.598 V15.125 C89.598,14.453,89.207,13.891,88.613,13.891 C87.816,13.891,87.816,14.594,87.816,14.891 V17.781 H87.332 V14.797 C87.332,14.109,87.582,13.438,88.52,13.438 C89.223,13.438,89.551,13.953,89.598,14.125 H89.629 C89.629,13.812,89.645,13.688,89.66,13.5 H90.113 C90.098,13.953,90.082,14.375,90.082,14.828 Z " stroke-width="0" fill="black" />
<path d="M91.523,18.641 V17.781 H90.883 V17.328 H91.523 V14.406 C91.523,13.922,91.68,13.438,92.32,13.438 C92.539,13.438,92.758,13.453,92.883,13.5 V13.984 C92.789,13.953,92.711,13.891,92.477,13.891 C92.07,13.891,92.008,14.203,92.008,14.547 V17.328 H92.883 V17.781 H92.008 V18.797 L91.523,18.641 Z " stroke-width="0" fill="black" />
<polygon points="93.738,13.5 94.238,13.5 94.238,17.781 93.738,17.781 " stroke-width="0" fill="black" />
<polygon points="93.691,18.734 94.285,18.734 94.285,19.5 93.691,19.5 " stroke-width="0" fill="black" />
<path d="M96.855,13.891 L96.805,13.892 L96.756,13.895 L96.709,13.9 L96.663,13.906 L96.619,13.915 L96.576,13.926 L96.534,13.938 L96.494,13.952 L96.456,13.967 L96.419,13.984 L96.383,14.003 L96.348,14.023 L96.315,14.044 L96.283,14.067 L96.253,14.091 L96.223,14.116 L96.195,14.142 L96.168,14.169 L96.142,14.198 L96.117,14.227 L96.071,14.289 L96.029,14.354 L95.991,14.421 L95.956,14.491 L95.926,14.563 L95.898,14.637 L95.874,14.711 L95.853,14.786 L95.835,14.861 L95.819,14.936 L95.806,15.01 L95.795,15.082 L95.786,15.153 L95.779,15.222 L95.773,15.288 L95.769,15.351 L95.766,15.411 L95.764,15.467 L95.763,15.518 L95.762,15.564 L95.762,15.605 L95.762,15.624 L95.762,15.641 C95.762,15.984,95.762,17.391,96.855,17.391 C97.949,17.391,97.949,15.984,97.949,15.641 C97.949,15.297,97.949,13.891,96.855,13.891 Z " stroke-width="0" fill="black" />
<path d="M96.855,13.438 L96.913,13.438 L96.97,13.441 L97.08,13.45 L97.184,13.466 L97.284,13.488 L97.378,13.515 L97.468,13.548 L97.554,13.587 L97.634,13.63 L97.711,13.678 L97.783,13.731 L97.85,13.789 L97.914,13.85 L97.974,13.916 L98.029,13.985 L98.081,14.058 L98.129,14.135 L98.173,14.214 L98.214,14.297 L98.251,14.382 L98.285,14.47 L98.316,14.56 L98.343,14.652 L98.368,14.746 L98.389,14.842 L98.408,14.939 L98.423,15.037 L98.436,15.136 L98.447,15.236 L98.455,15.337 L98.46,15.438 L98.464,15.539 L98.465,15.641 C98.465,16.719,98.105,17.844,96.855,17.844 C95.605,17.844,95.246,16.719,95.246,15.641 C95.246,14.562,95.605,13.438,96.855,13.438 Z " stroke-width="0" fill="black" />
<path d="M99.461,13.5 H99.945 V16.172 C99.945,16.828,100.32,17.391,100.91,17.391 C101.73,17.391,101.73,16.688,101.73,16.391 V13.5 H102.21 V16.375 C102.21,16.656,102.21,17.844,101.02,17.844 C100.31,17.844,100.02,17.344,99.93,17.156 H99.914 C99.898,17.469,99.898,17.594,99.867,17.781 H99.414 C99.43,17.344,99.461,16.906,99.461,16.453 Z " stroke-width="0" fill="black" />
<path d="M107.27,16.688 L107.38,16.761 L107.49,16.836 L107.59,16.913 L107.7,16.992 L107.8,17.074 L107.85,17.116 L107.89,17.159 L107.94,17.203 L107.98,17.248 L108.03,17.294 L108.07,17.342 L108.11,17.39 L108.14,17.44 L108.18,17.492 L108.21,17.544 L108.24,17.598 L108.27,17.654 L108.3,17.712 L108.32,17.771 L108.35,17.832 L108.37,17.894 L108.38,17.959 L108.4,18.025 L108.41,18.094 L108.42,18.165 L108.42,18.237 L108.42,18.312 C108.42,18.844,108.02,19.422,107.25,19.422 C106.25,19.422,105.94,18.641,105.94,18.219 C105.94,17.656,106.25,17.219,106.56,16.844 C105.89,16.469,105.41,15.922,105.41,15.125 C105.41,14.25,105.78,13.438,107,13.438 C107.95,13.438,108.42,14.062,108.47,14.203 L108.97,13.5 H109.64 L108.78,14.578 C109.23,15.391,109.33,16.438,109.36,16.812 H108.88 C108.83,16.094,108.69,15.406,108.48,15 L107.27,16.688 Z " stroke-width="0" fill="black" />
<path d="M107.89,18.234 L107.89,18.176 L107.88,18.12 L107.88,18.065 L107.86,18.011 L107.85,17.959 L107.83,17.907 L107.81,17.858 L107.79,17.809 L107.77,17.762 L107.74,17.717 L107.71,17.672 L107.68,17.629 L107.65,17.588 L107.62,17.547 L107.58,17.508 L107.55,17.471 L107.51,17.434 L107.48,17.399 L107.44,17.366 L107.4,17.333 L107.36,17.302 L107.33,17.273 L107.29,17.244 L107.25,17.217 L107.21,17.191 L107.18,17.167 L107.14,17.144 L107.11,17.122 L107.08,17.101 L107.04,17.082 L107.01,17.064 L106.98,17.047 C106.67,17.5,106.47,17.812,106.47,18.188 C106.47,18.516,106.69,18.938,107.22,18.938 C107.78,18.938,107.89,18.469,107.89,18.234 Z " stroke-width="0" fill="black" />
<path d="M108.22,14.578 L108.19,14.543 L108.17,14.509 L108.14,14.475 L108.11,14.442 L108.08,14.41 L108.05,14.378 L108.02,14.347 L107.99,14.317 L107.95,14.288 L107.92,14.26 L107.89,14.232 L107.85,14.206 L107.81,14.18 L107.78,14.155 L107.74,14.132 L107.7,14.109 L107.66,14.088 L107.62,14.068 L107.58,14.049 L107.54,14.031 L107.5,14.014 L107.46,13.999 L107.42,13.984 L107.38,13.972 L107.33,13.96 L107.29,13.95 L107.25,13.942 L107.21,13.935 L107.16,13.929 L107.12,13.925 L107.07,13.923 L107.03,13.922 C106.09,13.922,105.94,14.797,105.94,15.031 C105.94,15.719,106.22,16.062,106.84,16.5 L108.2,14.578 Z " stroke-width="0" fill="black" />
<path d="M115.12,16.422 L115.12,16.453 L115.12,16.489 L115.12,16.529 L115.11,16.573 L115.11,16.619 L115.11,16.669 L115.1,16.721 L115.1,16.776 L115.09,16.832 L115.08,16.89 L115.06,16.949 L115.05,17.009 L115.03,17.07 L115.01,17.13 L114.98,17.19 L114.95,17.25 L114.92,17.309 L114.88,17.366 L114.84,17.422 L114.79,17.476 L114.74,17.528 L114.71,17.553 L114.69,17.577 L114.66,17.6 L114.62,17.623 L114.59,17.645 L114.56,17.666 L114.52,17.686 L114.48,17.704 L114.45,17.722 L114.4,17.739 L114.36,17.755 L114.32,17.77 L114.27,17.783 L114.23,17.796 L114.18,17.806 L114.13,17.816 L114.08,17.824 L114.02,17.831 L113.97,17.837 L113.91,17.841 L113.85,17.843 L113.79,17.844 C113.32,17.844,113.02,17.688,112.6,17.469 L112.68,16.953 C112.74,16.984,113.19,17.391,113.76,17.391 C114.66,17.391,114.66,16.625,114.66,16.078 H114.35 C113.73,16.078,112.27,16.062,112.27,14.688 C112.27,13.984,112.81,13.438,113.48,13.438 C114.02,13.438,114.38,13.641,114.68,14.109 H114.69 L114.73,13.5 H115.16 C115.13,13.812,115.12,14.141,115.12,14.453 Z " stroke-width="0" fill="black" />
<path d="M114.66,15.156 L114.66,15.102 L114.66,15.05 L114.66,14.999 L114.65,14.949 L114.65,14.901 L114.64,14.854 L114.64,14.809 L114.63,14.765 L114.62,14.723 L114.61,14.682 L114.6,14.643 L114.58,14.604 L114.57,14.567 L114.56,14.532 L114.54,14.497 L114.53,14.464 L114.51,14.432 L114.5,14.401 L114.48,14.372 L114.46,14.343 L114.44,14.316 L114.42,14.29 L114.38,14.241 L114.34,14.196 L114.3,14.155 L114.26,14.118 L114.21,14.084 L114.17,14.054 L114.12,14.027 L114.08,14.003 L114.03,13.982 L113.98,13.964 L113.94,13.948 L113.9,13.935 L113.85,13.924 L113.81,13.914 L113.77,13.907 L113.73,13.901 L113.7,13.897 L113.67,13.894 L113.64,13.892 L113.61,13.891 L113.59,13.891 C113.07,13.891,112.79,14.328,112.79,14.688 C112.79,15.656,113.65,15.656,114.66,15.656 Z " stroke-width="0" fill="black" />
<path d="M116.32,13.5 H116.81 V16.203 C116.81,16.984,117.16,17.328,117.93,17.328 V17.844 C117.46,17.844,117.1,17.719,116.79,17.109 H116.76 C116.76,17.281,116.74,17.531,116.74,17.781 H116.27 C116.29,17.344,116.32,16.906,116.32,16.453 Z " stroke-width="0" fill="black" />
<path d="M121.07,17.688 L121.03,17.705 L120.99,17.721 L120.95,17.737 L120.9,17.751 L120.86,17.765 L120.82,17.778 L120.77,17.79 L120.72,17.801 L120.67,17.811 L120.62,17.819 L120.57,17.826 L120.51,17.833 L120.45,17.837 L120.42,17.839 L120.39,17.841 L120.36,17.842 L120.33,17.843 L120.3,17.844 L120.27,17.844 C119.07,17.844,118.49,16.938,118.49,15.625 C118.49,14.141,119.36,13.438,120.27,13.438 C120.58,13.438,120.89,13.516,121.11,13.594 L121.05,14.156 C120.93,13.984,120.54,13.922,120.35,13.922 C119.88,13.922,119,14.203,119,15.766 C119,16.906,119.61,17.359,120.27,17.359 C120.52,17.359,120.85,17.297,121.04,17.141 L121.07,17.688 Z " stroke-width="0" fill="black" />
<path d="M121.91,13.5 H122.39 V16.172 C122.39,16.828,122.77,17.391,123.36,17.391 C124.17,17.391,124.17,16.688,124.17,16.391 V13.5 H124.66 V16.375 C124.66,16.656,124.66,17.844,123.47,17.844 C122.78,17.844,122.48,17.344,122.41,17.156 H122.39 V19.797 H121.91 Z " stroke-width="0" fill="black" />
<polygon points="125.91,13.5 126.41,13.5 126.41,17.781 125.91,17.781 " stroke-width="0" fill="black" />
<polygon points="125.86,18.734 126.46,18.734 126.46,19.5 125.86,19.5 " stroke-width="0" fill="black" />
<path d="M127.87,18.641 V17.781 H127.23 V17.328 H127.87 V14.406 C127.87,13.922,128.03,13.438,128.67,13.438 C128.89,13.438,129.1,13.453,129.23,13.5 V13.984 C129.14,13.953,129.06,13.891,128.82,13.891 C128.42,13.891,128.35,14.203,128.35,14.547 V17.328 H129.23 V17.781 H128.35 V18.797 L127.87,18.641 Z " stroke-width="0" fill="black" />
<path d="M132.71,15.484 L132.71,15.683 L132.7,15.886 L132.69,16.091 L132.68,16.193 L132.67,16.295 L132.66,16.396 L132.64,16.496 L132.63,16.594 L132.61,16.691 L132.58,16.786 L132.56,16.879 L132.53,16.969 L132.49,17.057 L132.46,17.141 L132.42,17.222 L132.37,17.3 L132.32,17.373 L132.27,17.443 L132.21,17.507 L132.15,17.567 L132.08,17.622 L132.01,17.672 L131.94,17.716 L131.89,17.735 L131.85,17.754 L131.81,17.77 L131.76,17.785 L131.72,17.799 L131.67,17.81 L131.62,17.821 L131.57,17.829 L131.52,17.835 L131.46,17.84 L131.41,17.843 L131.35,17.844 C130.62,17.844,129.82,17.25,129.82,15.641 C129.82,15.219,129.82,13.438,131.51,13.438 C132.02,13.438,132.3,13.578,132.51,13.688 L132.48,14.25 C132.24,14.031,131.84,13.891,131.55,13.891 C131.37,13.891,130.34,13.891,130.34,15.484 H132.71 Z " stroke-width="0" fill="black" />
<path d="M130.34,15.938 L130.34,15.991 L130.34,16.047 L130.34,16.103 L130.35,16.161 L130.36,16.221 L130.37,16.28 L130.38,16.341 L130.4,16.402 L130.41,16.463 L130.43,16.524 L130.45,16.584 L130.47,16.644 L130.49,16.704 L130.52,16.762 L130.55,16.819 L130.58,16.875 L130.61,16.929 L130.64,16.981 L130.68,17.031 L130.71,17.079 L130.75,17.124 L130.79,17.167 L130.84,17.206 L130.88,17.243 L130.93,17.276 L130.98,17.305 L131.03,17.33 L131.08,17.351 L131.14,17.368 L131.2,17.38 L131.23,17.385 L131.26,17.388 L131.29,17.39 L131.32,17.391 C131.71,17.391,132.2,17.078,132.2,15.938 H130.34 Z " stroke-width="0" fill="black" />
<path d="M136.05,17.688 L136.02,17.705 L135.98,17.721 L135.94,17.737 L135.89,17.751 L135.85,17.765 L135.8,17.778 L135.76,17.79 L135.71,17.801 L135.66,17.811 L135.61,17.819 L135.55,17.826 L135.5,17.833 L135.44,17.837 L135.41,17.839 L135.38,17.841 L135.35,17.842 L135.32,17.843 L135.29,17.844 L135.26,17.844 C134.05,17.844,133.48,16.938,133.48,15.625 C133.48,14.141,134.35,13.438,135.26,13.438 C135.57,13.438,135.88,13.516,136.1,13.594 L136.04,14.156 C135.91,13.984,135.52,13.922,135.34,13.922 C134.87,13.922,133.99,14.203,133.99,15.766 C133.99,16.906,134.6,17.359,135.26,17.359 C135.51,17.359,135.84,17.297,136.02,17.141 L136.05,17.688 Z " stroke-width="0" fill="black" />
<path d="M137.11,18.641 V17.781 H136.47 V17.328 H137.11 V14.406 C137.11,13.922,137.27,13.438,137.91,13.438 C138.13,13.438,138.35,13.453,138.47,13.5 V13.984 C138.38,13.953,138.3,13.891,138.07,13.891 C137.66,13.891,137.6,14.203,137.6,14.547 V17.328 H138.47 V17.781 H137.6 V18.797 L137.11,18.641 Z " stroke-width="0" fill="black" />
<path d="M142.05,17.781 H141.56 V15.125 C141.56,14.453,141.17,13.891,140.58,13.891 C139.78,13.891,139.78,14.594,139.78,14.891 V17.781 H139.3 V14.797 C139.3,14.109,139.55,13.438,140.48,13.438 C141.19,13.438,141.52,13.953,141.56,14.125 H141.59 C141.59,13.812,141.61,13.688,141.62,13.5 H142.08 C142.06,13.953,142.05,14.375,142.05,14.828 Z " stroke-width="0" fill="black" />
<path d="M143.27,13.5 H143.75 V16.203 C143.75,16.984,144.11,17.328,144.88,17.328 V17.844 C144.41,17.844,144.05,17.719,143.74,17.109 H143.71 C143.71,17.281,143.69,17.531,143.69,17.781 H143.22 C143.24,17.344,143.27,16.906,143.27,16.453 Z " stroke-width="0" fill="black" />
<path d="M148.33,15.484 L148.33,15.683 L148.32,15.886 L148.31,16.091 L148.3,16.193 L148.29,16.295 L148.28,16.396 L148.26,16.496 L148.24,16.594 L148.22,16.691 L148.2,16.786 L148.17,16.879 L148.14,16.969 L148.11,17.057 L148.07,17.141 L148.03,17.222 L147.99,17.3 L147.94,17.373 L147.89,17.443 L147.83,17.507 L147.77,17.567 L147.7,17.622 L147.63,17.672 L147.55,17.716 L147.51,17.735 L147.47,17.754 L147.43,17.77 L147.38,17.785 L147.34,17.799 L147.29,17.81 L147.24,17.821 L147.19,17.829 L147.14,17.835 L147.08,17.84 L147.03,17.843 L146.97,17.844 C146.23,17.844,145.44,17.25,145.44,15.641 C145.44,15.219,145.44,13.438,147.12,13.438 C147.64,13.438,147.92,13.578,148.12,13.688 L148.09,14.25 C147.86,14.031,147.45,13.891,147.17,13.891 C146.98,13.891,145.95,13.891,145.95,15.484 H148.33 Z " stroke-width="0" fill="black" />
<path d="M145.95,15.938 L145.95,15.991 L145.96,16.047 L145.96,16.103 L145.97,16.161 L145.98,16.221 L145.99,16.28 L146,16.341 L146.01,16.402 L146.03,16.463 L146.05,16.524 L146.07,16.584 L146.09,16.644 L146.11,16.704 L146.14,16.762 L146.16,16.819 L146.19,16.875 L146.22,16.929 L146.26,16.981 L146.29,17.031 L146.33,17.079 L146.37,17.124 L146.41,17.167 L146.46,17.206 L146.5,17.243 L146.55,17.276 L146.6,17.305 L146.65,17.33 L146.7,17.351 L146.76,17.368 L146.82,17.38 L146.85,17.385 L146.88,17.388 L146.91,17.39 L146.94,17.391 C147.33,17.391,147.81,17.078,147.81,15.938 H145.95 Z " stroke-width="0" fill="black" />
<polygon points="151.44,13.5 151.94,13.5 151.94,19.797 151.44,19.797 " stroke-width="0" fill="black" />
<path d="M155.79,16.422 L155.79,16.453 L155.79,16.489 L155.79,16.529 L155.79,16.573 L155.79,16.619 L155.78,16.669 L155.78,16.721 L155.77,16.776 L155.76,16.832 L155.75,16.89 L155.74,16.949 L155.72,17.009 L155.7,17.07 L155.68,17.13 L155.66,17.19 L155.63,17.25 L155.59,17.309 L155.56,17.366 L155.52,17.422 L155.47,17.476 L155.42,17.528 L155.39,17.553 L155.36,17.577 L155.33,17.6 L155.3,17.623 L155.27,17.645 L155.23,17.666 L155.2,17.686 L155.16,17.704 L155.12,17.722 L155.08,17.739 L155.04,17.755 L155,17.77 L154.95,17.783 L154.9,17.796 L154.85,17.806 L154.8,17.816 L154.75,17.824 L154.7,17.831 L154.64,17.837 L154.59,17.841 L154.53,17.843 L154.46,17.844 C154,17.844,153.7,17.688,153.28,17.469 L153.35,16.953 C153.42,16.984,153.87,17.391,154.43,17.391 C155.34,17.391,155.34,16.625,155.34,16.078 H155.03 C154.4,16.078,152.95,16.062,152.95,14.688 C152.95,13.984,153.48,13.438,154.15,13.438 C154.7,13.438,155.06,13.641,155.35,14.109 H155.37 L155.4,13.5 H155.84 C155.81,13.812,155.79,14.141,155.79,14.453 Z " stroke-width="0" fill="black" />
<path d="M155.34,15.156 L155.34,15.102 L155.34,15.05 L155.33,14.999 L155.33,14.949 L155.33,14.901 L155.32,14.854 L155.31,14.809 L155.3,14.765 L155.29,14.723 L155.28,14.682 L155.27,14.643 L155.26,14.604 L155.25,14.567 L155.23,14.532 L155.22,14.497 L155.2,14.464 L155.19,14.432 L155.17,14.401 L155.15,14.372 L155.14,14.343 L155.12,14.316 L155.1,14.29 L155.06,14.241 L155.02,14.196 L154.98,14.155 L154.93,14.118 L154.89,14.084 L154.84,14.054 L154.8,14.027 L154.75,14.003 L154.71,13.982 L154.66,13.964 L154.62,13.948 L154.57,13.935 L154.53,13.924 L154.49,13.914 L154.45,13.907 L154.41,13.901 L154.38,13.897 L154.34,13.894 L154.31,13.892 L154.29,13.891 L154.26,13.891 C153.75,13.891,153.46,14.328,153.46,14.688 C153.46,15.656,154.32,15.656,155.34,15.656 Z " stroke-width="0" fill="black" />
<path d="M156.95,14.922 L156.95,14.86 L156.95,14.799 L156.95,14.741 L156.95,14.683 L156.95,14.628 L156.95,14.573 L156.95,14.52 L156.95,14.469 L156.95,14.419 L156.95,14.37 L156.94,14.322 L156.94,14.276 L156.94,14.23 L156.94,14.186 L156.94,14.1 L156.94,14.017 L156.93,13.938 L156.93,13.861 L156.93,13.786 L156.93,13.713 L156.92,13.641 L156.92,13.5 H157.37 V14.094 H157.39 C157.7,13.688,157.98,13.438,158.53,13.438 C159.92,13.438,159.96,15.203,159.96,15.797 C159.96,16.625,159.62,17.844,158.54,17.844 C158.03,17.844,157.71,17.625,157.46,17.234 H157.45 V19.797 H156.95 Z " stroke-width="0" fill="black" />
<path d="M159.45,15.641 L159.45,15.624 L159.45,15.605 L159.45,15.564 L159.45,15.518 L159.45,15.467 L159.45,15.411 L159.44,15.351 L159.44,15.288 L159.43,15.222 L159.43,15.153 L159.42,15.082 L159.41,15.01 L159.4,14.936 L159.38,14.861 L159.37,14.786 L159.35,14.711 L159.33,14.637 L159.3,14.563 L159.27,14.491 L159.24,14.421 L159.21,14.354 L159.17,14.289 L159.13,14.227 L159.08,14.169 L159.06,14.142 L159.03,14.116 L159.01,14.091 L158.98,14.067 L158.95,14.044 L158.92,14.023 L158.89,14.003 L158.86,13.984 L158.82,13.967 L158.79,13.952 L158.75,13.938 L158.72,13.926 L158.68,13.915 L158.64,13.906 L158.6,13.9 L158.55,13.895 L158.51,13.892 L158.46,13.891 C157.64,13.891,157.42,14.719,157.42,15.594 C157.42,16.172,157.42,17.391,158.46,17.391 C159.2,17.391,159.45,16.641,159.45,15.641 Z " stroke-width="0" fill="black" />
</g>
</svg>
